<?xml version="1.0"?>
<svg xmlns="http://www.w3.org/2000/svg" xmlns:xlink="http://www.w3.org/1999/xlink" version="1.1" xml:space="preserve">
  <defs>

    <symbol id="loader" width="100%" height="100%" viewBox="22 22 44 44">
      <circle cx="44" cy="44" r="20.2" fill="transparent" stroke="currentColor" stroke-width="4" />
    </symbol>

    <symbol id="arrow-left" width="100%" height="100%" viewBox="0 0 17 17">
      <path d="M6.83744 8.4L11.1187 4.11872C11.4604 3.77701 11.4604 3.22299 11.1187 2.88128C10.777 2.53957 10.223 2.53957 9.88128 2.88128L4.98128 7.78128C4.63957 8.12299 4.63957 8.67701 4.98128 9.01872L9.88128 13.9187C10.223 14.2604 10.777 14.2604 11.1187 13.9187C11.4604 13.577 11.4604 13.023 11.1187 12.6813L6.83744 8.4Z" fill="currentColor" />
    </symbol>

    <symbol id="arrow-right" width="100%" height="100%" viewBox="0 0 17 17">
      <path d="M9.96261 8.4L5.68133 4.11872C5.33962 3.77701 5.33962 3.22299 5.68133 2.88128C6.02304 2.53957 6.57706 2.53957 6.91877 2.88128L11.8188 7.78128C12.1605 8.12299 12.1605 8.67701 11.8188 9.01872L6.91877 13.9187C6.57706 14.2604 6.02304 14.2604 5.68133 13.9187C5.33962 13.577 5.33962 13.023 5.68133 12.6813L9.96261 8.4Z" fill="currentColor" />
    </symbol>

    <symbol id="arrow-back" width="100%" height="100%" viewBox="0 0 24 24">
      <path d="M20 12H4M4 12L10 6M4 12L10 18" fill="transparent" stroke="currentColor" stroke-width="1.5" stroke-linecap="round" stroke-linejoin="round" />
    </symbol>

    <symbol id="burger" width="100%" height="100%" viewBox="0 0 24 24">
      <path fill-rule="evenodd" clip-rule="evenodd" d="M20.75 7C20.75 7.41421 20.4142 7.75 20 7.75L4 7.75C3.58579 7.75 3.25 7.41421 3.25 7C3.25 6.58579 3.58579 6.25 4 6.25L20 6.25C20.4142 6.25 20.75 6.58579 20.75 7Z" fill="currentColor" />
      <path fill-rule="evenodd" clip-rule="evenodd" d="M20.75 12C20.75 12.4142 20.4142 12.75 20 12.75L4 12.75C3.58579 12.75 3.25 12.4142 3.25 12C3.25 11.5858 3.58579 11.25 4 11.25L20 11.25C20.4142 11.25 20.75 11.5858 20.75 12Z" fill="currentColor" />
      <path fill-rule="evenodd" clip-rule="evenodd" d="M20.75 17C20.75 17.4142 20.4142 17.75 20 17.75L4 17.75C3.58579 17.75 3.25 17.4142 3.25 17C3.25 16.5858 3.58579 16.25 4 16.25L20 16.25C20.4142 16.25 20.75 16.5858 20.75 17Z" fill="currentColor" />
    </symbol>

    <symbol id="close" width="100%" height="100%" viewBox="0 0 24 24">
      <path d="M18.9999 5.00004L5 19M4.99994 4.99998L18.9999 18.9999" fill="transparent" stroke="currentColor" stroke-width="2.4" stroke-linecap="round" />
    </symbol>

    <symbol id="checkbox" width="100%" height="100%" viewBox="0 0 24 24">
      <path fill-rule="evenodd" clip-rule="evenodd" d="M12 22C7.28595 22 4.92893 22 3.46447 20.5355C2 19.0711 2 16.714 2 12C2 7.28595 2 4.92893 3.46447 3.46447C4.92893 2 7.28595 2 12 2C16.714 2 19.0711 2 20.5355 3.46447C22 4.92893 22 7.28595 22 12C22 16.714 22 19.0711 20.5355 20.5355C19.0711 22 16.714 22 12 22ZM16.0303 8.96967C16.3232 9.26256 16.3232 9.73744 16.0303 10.0303L11.0303 15.0303C10.7374 15.3232 10.2626 15.3232 9.96967 15.0303L7.96967 13.0303C7.67678 12.7374 7.67678 12.2626 7.96967 11.9697C8.26256 11.6768 8.73744 11.6768 9.03033 11.9697L10.5 13.4393L14.9697 8.96967C15.2626 8.67678 15.7374 8.67678 16.0303 8.96967Z" fill="currentColor" />
    </symbol>

    <symbol id="circle" width="100%" height="100%" viewBox="0 0 20 20">
      <circle cx="9.99984" cy="9.99999" r="8.33333" fill="transparent" stroke="currentColor" stroke-width="1.5" />
      <path d="M7.0835 10.4167L8.75016 12.0833L12.9168 7.91666" fill="transparent" stroke="currentColor" stroke-width="1.5" stroke-linecap="round" stroke-linejoin="round" />
    </symbol>

    <symbol id="stopwatch" width="100%" height="100%" viewBox="0 0 20 20">
      <circle cx="10" cy="10.8333" r="7.5" fill="transparent" stroke="currentColor" stroke-width="1.5" />
      <path d="M8.3335 1.66666H11.6668" fill="transparent" stroke="currentColor" stroke-width="1.5" stroke-linecap="round" />
      <path d="M11.5728 9.11234C12.4686 9.84307 12.9165 10.2084 12.9165 10.8333C12.9165 11.4582 12.4686 11.8236 11.5728 12.5543C11.3256 12.7561 11.0803 12.946 10.8549 13.1042C10.6572 13.2431 10.4333 13.3867 10.2014 13.5277C9.30778 14.0711 8.86094 14.3428 8.46018 14.042C8.05942 13.7412 8.023 13.1114 7.95015 11.8518C7.92955 11.4956 7.9165 11.1464 7.9165 10.8333C7.9165 10.5203 7.92955 10.1711 7.95015 9.81487C8.023 8.5553 8.05942 7.92551 8.46018 7.62467C8.86094 7.32382 9.30778 7.59555 10.2014 8.13899C10.4333 8.27997 10.6572 8.42359 10.8549 8.56243C11.0803 8.72069 11.3256 8.91062 11.5728 9.11234Z" fill="transparent" stroke="currentColor" stroke-width="1.5" />
    </symbol>

    <symbol id="sale" width="100%" height="100%" viewBox="0 0 20 20">
      <path d="M8.15086 3.2423C8.62076 2.84186 8.8557 2.64164 9.10135 2.52423C9.66951 2.25267 10.33 2.25267 10.8982 2.52423C11.1438 2.64164 11.3788 2.84186 11.8487 3.2423C12.0357 3.40168 12.1292 3.48136 12.2291 3.5483C12.458 3.70174 12.7151 3.80823 12.9855 3.86161C13.1034 3.8849 13.2259 3.89467 13.4708 3.91422C14.0862 3.96333 14.3939 3.98788 14.6507 4.07856C15.2444 4.28829 15.7115 4.75533 15.9212 5.34911C16.0119 5.60583 16.0364 5.91354 16.0856 6.52896C16.1051 6.7739 16.1149 6.89637 16.1382 7.01432C16.1915 7.28469 16.298 7.54178 16.4515 7.77071C16.5184 7.87058 16.5981 7.96409 16.7575 8.15111C17.1579 8.621 17.3581 8.85595 17.4755 9.1016C17.7471 9.66976 17.7471 10.3303 17.4755 10.8984C17.3581 11.1441 17.1579 11.379 16.7575 11.8489C16.5981 12.0359 16.5184 12.1294 16.4515 12.2293C16.298 12.4582 16.1915 12.7153 16.1382 12.9857C16.1149 13.1037 16.1051 13.2261 16.0856 13.4711C16.0364 14.0865 16.0119 14.3942 15.9212 14.6509C15.7115 15.2447 15.2444 15.7117 14.6507 15.9215C14.3939 16.0121 14.0862 16.0367 13.4708 16.0858C13.2259 16.1054 13.1034 16.1151 12.9855 16.1384C12.7151 16.1918 12.458 16.2983 12.2291 16.4517C12.1292 16.5187 12.0357 16.5983 11.8487 16.7577C11.3788 17.1582 11.1438 17.3584 10.8982 17.4758C10.33 17.7474 9.66951 17.7474 9.10135 17.4758C8.85571 17.3584 8.62076 17.1582 8.15086 16.7577C7.96384 16.5983 7.87034 16.5187 7.77047 16.4517C7.54154 16.2983 7.28444 16.1918 7.01407 16.1384C6.89612 16.1151 6.77365 16.1054 6.52871 16.0858C5.91329 16.0367 5.60558 16.0121 5.34886 15.9215C4.75509 15.7117 4.28804 15.2447 4.07832 14.6509C3.98764 14.3942 3.96308 14.0865 3.91397 13.4711C3.89443 13.2261 3.88465 13.1037 3.86137 12.9857C3.80799 12.7153 3.70149 12.4582 3.54806 12.2293C3.48112 12.1294 3.40143 12.0359 3.24206 11.8489C2.84161 11.379 2.64139 11.1441 2.52398 10.8984C2.25242 10.3303 2.25242 9.66976 2.52398 9.1016C2.64139 8.85595 2.84162 8.621 3.24206 8.15111C3.40143 7.96409 3.48112 7.87058 3.54806 7.77071C3.70149 7.54178 3.80799 7.28469 3.86137 7.01432C3.88465 6.89637 3.89443 6.7739 3.91397 6.52896C3.96308 5.91354 3.98764 5.60583 4.07832 5.34911C4.28804 4.75533 4.75509 4.28829 5.34886 4.07856C5.60559 3.98788 5.9133 3.96333 6.52871 3.91422C6.77365 3.89467 6.89612 3.8849 7.01407 3.86161C7.28444 3.80823 7.54154 3.70174 7.77047 3.5483C7.87034 3.48136 7.96385 3.40168 8.15086 3.2423Z" fill="transparent" stroke="currentColor" stroke-width="1.5" />
      <path d="M7.5 12.5L12.5 7.5" fill="transparent" stroke="currentColor" stroke-width="1.5" stroke-linecap="round" />
      <path d="M12.9167 12.0833C12.9167 12.5436 12.5436 12.9167 12.0833 12.9167C11.6231 12.9167 11.25 12.5436 11.25 12.0833C11.25 11.6231 11.6231 11.25 12.0833 11.25C12.5436 11.25 12.9167 11.6231 12.9167 12.0833Z" fill="currentColor" />
      <path d="M8.75016 7.91668C8.75016 8.37691 8.37707 8.75001 7.91683 8.75001C7.45659 8.75001 7.0835 8.37691 7.0835 7.91668C7.0835 7.45644 7.45659 7.08334 7.91683 7.08334C8.37707 7.08334 8.75016 7.45644 8.75016 7.91668Z" fill="currentColor" />
    </symbol>

    <symbol id="wallet" width="100%" height="100%" viewBox="0 0 20 20">
      <path d="M5 8.33334H8.33333" fill="transparent" stroke="currentColor" stroke-width="1.5" stroke-linecap="round" stroke-linejoin="round" />
      <path d="M17.3611 9.16666H15.1923C13.7054 9.16666 12.5 10.2859 12.5 11.6667C12.5 13.0474 13.7054 14.1667 15.1923 14.1667H17.3611C17.4306 14.1667 17.4653 14.1667 17.4946 14.1649C17.944 14.1375 18.302 13.8051 18.3314 13.3878C18.3333 13.3606 18.3333 13.3284 18.3333 13.2639V10.0694C18.3333 10.005 18.3333 9.97271 18.3314 9.94549C18.302 9.52819 17.944 9.19579 17.4946 9.16844C17.4653 9.16666 17.4306 9.16666 17.3611 9.16666Z" fill="transparent" stroke="currentColor" stroke-width="1.5" />
      <path d="M17.4707 9.16667C17.4059 7.60642 17.197 6.64979 16.5235 5.97631C15.5472 5 13.9759 5 10.8332 5H8.33317C5.19047 5 3.61913 5 2.64281 5.97631C1.6665 6.95262 1.6665 8.52397 1.6665 11.6667C1.6665 14.8094 1.6665 16.3807 2.64281 17.357C3.61913 18.3333 5.19047 18.3333 8.33317 18.3333H10.8332C13.9759 18.3333 15.5472 18.3333 16.5235 17.357C17.197 16.6835 17.4059 15.7269 17.4707 14.1667" fill="transparent" stroke="currentColor" stroke-width="1.5" />
      <path d="M5 5L8.1129 2.93594C8.98953 2.35469 10.1771 2.35469 11.0538 2.93594L14.1667 5" fill="transparent" stroke="currentColor" stroke-width="1.5" stroke-linecap="round" />
      <path d="M14.9927 11.6667H15.0002" fill="transparent" stroke="currentColor" stroke-width="2" stroke-linecap="round" stroke-linejoin="round" />
    </symbol>

    <symbol id="success" width="100%" height="100%" viewBox="0 0 72 72">
      <path d="M60.8088 48.7949L62.9254 36.5556C63.4541 33.4986 61.1032 30.7026 58.0043 30.7026H42.461C40.9205 30.7026 39.7474 29.3199 39.9968 27.7979L41.9848 15.6643C42.3078 13.693 42.2156 11.676 41.714 9.74257C41.2985 8.14092 40.0628 6.85485 38.4377 6.33278L38.0028 6.19306C37.0206 5.87754 35.9486 5.95096 35.0226 6.39718C34.0033 6.88833 33.2576 7.7842 32.9813 8.84967L31.5541 14.3512C31.1001 16.1017 30.4386 17.7914 29.5858 19.3878C28.3398 21.7205 26.4132 23.5874 24.4106 25.3131L20.0944 29.0325C18.8774 30.0812 18.2383 31.6517 18.3768 33.2532L20.8133 61.4312C21.0368 64.0158 23.1977 66 25.789 66H39.7349C50.1788 66 59.0919 58.7232 60.8088 48.7949Z" fill="currentColor" />
      <path fill-rule="evenodd" clip-rule="evenodd" d="M8.903 28.4553C10.1068 28.4033 11.1378 29.3089 11.2416 30.5093L14.1564 64.2189C14.3437 66.3843 12.638 68.2506 10.4601 68.2506C8.40867 68.2506 6.75 66.5863 6.75 64.5388V30.7032C6.75 29.4982 7.6992 28.5072 8.903 28.4553Z" fill="currentColor" />
    </symbol>

    <symbol id="error" width="100%" height="100%" viewBox="0 0 72 72">
      <path d="M24.3188 54.7405C15.8946 48.2499 6 40.6265 6 27.4113C6 13.6097 20.7678 3.60529 33.7916 14.4412L29.4319 24.614C29.0154 25.5859 29.3318 26.7166 30.1922 27.3312L38.6919 33.4024L31.2917 42.036C30.5265 42.9287 30.5777 44.2599 31.409 45.0913L36.5082 50.1905L33.7782 61.1105C31.513 60.3507 29.2317 58.5824 26.8852 56.7326C26.0541 56.0775 25.1944 55.4151 24.3188 54.7405Z" fill="currentColor" />
      <path d="M38.4353 61.0359C40.6304 60.2395 42.8421 58.5243 45.1148 56.7326C45.9459 56.0775 46.8056 55.4151 47.6812 54.7405C56.1054 48.2499 66 40.6265 66 27.4113C66 13.8666 51.7769 3.9791 38.9375 13.8576L34.2815 24.722L43.3078 31.1694C43.8215 31.5363 44.1574 32.1021 44.2336 32.7288C44.3097 33.3555 44.1192 33.9853 43.7083 34.4646L36.0643 43.3826L40.591 47.9093C41.1498 48.4682 41.3745 49.2793 41.1828 50.046L38.4353 61.0359Z" fill="currentColor" />
    </symbol>

  </defs>
</svg>