<svg width="92" height="92" viewBox="0 0 92 92" fill="none" xmlns="http://www.w3.org/2000/svg">
  <g clip-path="url(#clip0_27_5506)">
    <path d="M44.691 0.0231715C26.4126 0.664517 11.2278 14.925 9.47351 33.1279C9.11511 36.7685 9.32261 40.2959 9.96395 43.6724C9.96395 43.6724 10.0205 44.0685 10.2092 44.8231C10.7751 47.3507 11.6239 49.8029 12.6802 52.1042C16.3585 60.819 24.8658 75.4002 43.9553 91.264C45.1248 92.2449 46.8413 92.2449 48.0297 91.264C67.1192 75.419 75.6265 60.8378 79.3236 52.0854C80.3988 49.7841 81.2288 47.3507 81.7947 44.8042C81.9645 44.0685 82.0399 43.6535 82.0399 43.6535C82.4738 41.39 82.7001 39.0698 82.7001 36.6931C82.7001 15.9814 65.5536 -0.71249 44.691 0.0231715ZM45.9925 54.9525C36.146 54.9525 28.1669 46.9735 28.1669 37.1269C28.1669 27.2804 36.146 19.3013 45.9925 19.3013C55.8391 19.3013 63.8181 27.2804 63.8181 37.1269C63.8181 46.9735 55.8391 54.9525 45.9925 54.9525Z" fill="#7B9F4C" />
    <ellipse cx="45.9994" cy="37.238" rx="19.7143" ry="19.7143" fill="white" />
  </g>
  <defs>
    <clipPath id="clip0_27_5506">
      <rect width="92" height="92" fill="white" />
    </clipPath>
  </defs>
</svg>