<svg width="56" height="56" viewBox="0 0 56 56" fill="none" xmlns="http://www.w3.org/2000/svg">
  <rect width="56" height="56" rx="28" fill="#33AADE" />
  <path fill-rule="evenodd" clip-rule="evenodd" d="M16.0011 26.9173C22.8594 23.8063 27.425 21.7392 29.7177 20.7363C36.2428 17.8913 37.6145 17.4001 38.4962 17.3796C38.6922 17.3796 39.1233 17.4206 39.4172 17.6662C39.6524 17.8709 39.7111 18.1369 39.7503 18.3416C39.7895 18.5463 39.8287 18.9761 39.7895 19.3036C39.4368 23.1923 37.9084 32.6277 37.1246 36.9667C36.7915 38.8088 36.1448 39.4228 35.5178 39.4842C34.1461 39.607 33.1076 38.5427 31.7947 37.6422C29.7177 36.2299 28.5616 35.3498 26.5433 33.9581C24.2115 32.3616 25.7203 31.4815 27.0527 30.0488C27.4054 29.6804 33.4211 23.9496 33.5387 23.4379C33.5583 23.3765 33.5583 23.1309 33.4211 23.0081C33.284 22.8853 33.088 22.9262 32.9313 22.9672C32.7157 23.0081 29.4237 25.3004 23.0162 29.8237C22.0756 30.4991 21.233 30.8266 20.4688 30.8061C19.6262 30.7856 18.0194 30.3149 16.8045 29.9056C15.3349 29.4143 14.1592 29.1483 14.2572 28.2887C14.316 27.8384 14.9038 27.3881 16.0011 26.9173Z" fill="white" />
</svg>