<svg width="56" height="56" viewBox="0 0 56 56" fill="none" xmlns="http://www.w3.org/2000/svg">
  <rect width="56" height="56" rx="28" fill="#26D044" />
  <path fill-rule="evenodd" clip-rule="evenodd" d="M38.4714 17.5196C35.693 14.7513 31.9981 13.2261 28.0616 13.2244C19.9504 13.2244 13.3487 19.794 13.3455 27.869C13.3445 30.4502 14.022 32.9696 15.3099 35.1908L13.2222 42.7799L21.0233 40.7434C23.1728 41.9101 25.5928 42.5252 28.0557 42.526H28.0617C36.1721 42.526 42.7743 35.9555 42.7777 27.8804C42.7791 23.9673 41.2497 20.2878 38.4714 17.5196ZM28.0617 40.0526H28.0568C25.8621 40.0518 23.7094 39.4649 21.8315 38.3558L21.3848 38.0921L16.7555 39.3006L17.9911 34.8087L17.7003 34.3479C16.476 32.4099 15.8292 30.1699 15.8302 27.8697C15.8329 21.1582 21.3198 15.6979 28.0667 15.6979C31.3335 15.699 34.4047 16.9668 36.714 19.2678C39.0233 21.5688 40.2941 24.6271 40.2929 27.8797C40.2902 34.5918 34.8033 40.0526 28.0617 40.0526ZM34.7708 30.9356C34.4031 30.7526 32.5955 29.8672 32.2584 29.7451C31.9214 29.6232 31.6762 29.562 31.4311 29.9284C31.186 30.2947 30.4812 31.1189 30.2667 31.3633C30.0522 31.6073 29.8377 31.638 29.4701 31.4547C29.1023 31.2717 27.9176 30.8852 26.5131 29.6384C25.42 28.6681 24.6821 27.4698 24.4676 27.1033C24.2531 26.7369 24.4446 26.5389 24.6288 26.3565C24.7942 26.1924 24.9965 25.9289 25.1805 25.7153C25.3644 25.5017 25.4255 25.349 25.5482 25.1048C25.6708 24.8606 25.6095 24.6468 25.5174 24.4638C25.4255 24.2804 24.6901 22.4792 24.3837 21.7465C24.0853 21.033 23.7821 21.1295 23.5565 21.1183C23.3422 21.1077 23.0969 21.1053 22.8516 21.1053C22.6065 21.1053 22.2083 21.1969 21.8711 21.5633C21.5342 21.9296 20.5843 22.815 20.5843 24.6162C20.5843 26.4175 21.9017 28.1574 22.0856 28.4018C22.2694 28.646 24.6785 32.3422 28.367 33.9274C29.2441 34.3045 29.9291 34.5295 30.4632 34.6983C31.3442 34.9769 32.1457 34.9374 32.7791 34.8433C33.4857 34.7382 34.9546 33.958 35.261 33.1032C35.5674 32.2483 35.5674 31.5156 35.4755 31.363C35.3836 31.2105 35.1385 31.1189 34.7708 30.9356Z" fill="white" />
</svg>